# xmcd CD database file
#
# Track frame offsets:
#	150
#	15575
#	33177
#	54826
#	71579
#	91312
#	105240
#	125629
#	143657
#	165562
#	184226
#	211651
#
# Disc length: 3022 seconds
#
# Revision: 0
# Processed by: cddbd v1.5.2PL0 Copyright (c) Steve Scherf et al.
# Submitted via: CDex 1.70beta2
#
DISCID=920bcc0c
DTITLE=Ramon Goose Band  - Journey Into The Blues 
DYEAR=2009
DGENRE=Blues
TTITLE0=Rude Mood
TTITLE1=Everyday I Have The Blues
TTITLE2=In My Father's House
TTITLE3=Travellin' South
TTITLE4=Heard The Angels Singing
TTITLE5=Perpetual Blues Machine
TTITLE6=Cut Me To The Bone
TTITLE7=Hey Hey
TTITLE8=Chevrolet
TTITLE9=Sitting On Top of The World
TTITLE10=Cut Me To The Bone (Live)
TTITLE11=Sookie Stomp (Live)
EXTD=YEAR: 2009
EXTT0=
EXTT1=
EXTT2=
EXTT3=
EXTT4=
EXTT5=
EXTT6=
EXTT7=
EXTT8=
EXTT9=
EXTT10=
EXTT11=
PLAYORDER=
